# xmcd CD database file
#
# Track frame offsets:
#	150
#	19901
#	43550
#	66152
#	86880
#	108838
#	128956
#	150581
#	170934
#	192115
#	210225
#	231501
#	251854
#	273122
#
# Disc length: 3941 seconds
#
# Revision: 0
# Processed by: cddbd v1.5.2PL0 Copyright (c) Steve Scherf et al.
# Submitted via: CDex 1.70beta2
#
DISCID=c40f630e
DTITLE=Johnny Rivera - puresalsa
DYEAR=2006
DGENRE=Salsa
TTITLE0=esa chica es mia
TTITLE1=necesito una amiga
TTITLE2=97 dias
TTITLE3=vivo pensando en ti
TTITLE4=liegaste tu
TTITLE5=perdon
TTITLE6=la casa mas bella
TTITLE7=guerra fria
TTITLE8=loco corazon
TTITLE9=ven dame tu amor
TTITLE10=atiendeme
TTITLE11=sigo enamorado
TTITLE12=acariciama
TTITLE13=my eyes adored you
EXTD=YEAR: 2006
EXTT0=
EXTT1=
EXTT2=
EXTT3=
EXTT4=
EXTT5=
EXTT6=
EXTT7=
EXTT8=
EXTT9=
EXTT10=
EXTT11=
EXTT12=
EXTT13=
PLAYORDER=
